<?xml version="1.0"?>
<svg xmlns="http://www.w3.org/2000/svg" version="1.1" width="250" height="54"><svg version="1.1" id="Ebene_1" x="0" y="0" viewBox="0 0 1150.55 250.55" xml:space="preserve" width="250" height="54"><style>.st0{fill:#494a56}</style><path class="st0" d="M40.14 236.87v-32.41h32.04v-18.54H40.14V167.5h38.31v-19.88H14.24v89.25h25.9zM146.65 236.87v-41.86c0-19.15-9.09-26.64-31.43-26.64-8.47 0-15.47 1.1-25.41 3.8v17.81c13.26-2.95 16.82-3.57 22.96-3.57 7.49 0 10.07 2.34 10.07 8.72v2.82c-13.87.49-17.19.87-23.2 2.34-11.05 2.7-15.47 8.1-15.47 19.02 0 12.28 7.24 19.53 19.64 19.53 8.84 0 15.22-3.68 19.89-11.42l2.7 9.45h20.25zm-23.82-17.06c-2.82 2.45-5.89 3.56-9.21 3.56-4.67 0-6.63-1.96-6.63-6.63 0-4.91 1.23-6.76 5.16-7.74 2.58-.61 3.81-.73 10.68-.85v11.66zM182.27 236.87v-45.92c4.17-2.21 6.38-2.95 9.7-2.95 4.91 0 7.49 2.58 7.49 7.49v41.37h23.45v-46.53c0-13.51-6.51-21.24-17.8-21.24-8.72 0-15.84 3.81-22.83 12.28v-37.32h-5.65c-2.58 2.7-8.47 4.17-17.8 4.3v88.52h23.44zM236.65 236.87h23.44v-43.83c5.78-1.47 12.52-2.58 21-3.07V169.1c-8.48.62-14.86 4.42-21 12.53v-12.89h-5.65c-2.82 2.7-8.47 4.05-17.8 4.29v63.84h.01zM339.28 219.07l-1.35.37c-3.56 1.1-4.67 1.23-6.99 1.23-6.02 0-7.74-1.72-7.74-8.1v-25.78h14.98V170.7H323.2v-15.1h-17.06l-2.09 7.48c-1.47 5.4-4.78 7.61-11.41 7.61h-1.11v16.09h8.23v28.85c0 16.09 6.99 23.21 24.56 23.21 5.52 0 10.68-1.35 14.98-2.95v-16.82h-.02zM407.78 236.87v-15.84h-29.47l29.09-36.46V170.7h-54.87v15.83h26.15l-28.98 36.59v13.75M443.17 236.87v-68.14h-5.65c-2.82 2.7-8.35 4.05-17.8 4.29v63.84h23.45v.01zm-11.79-95.76c-6.63 0-11.78 5.04-11.78 11.67 0 6.87 4.91 11.9 11.78 11.9 6.76 0 11.79-5.03 11.79-11.78 0-6.76-5.03-11.79-11.79-11.79zM519.39 208.88v-5.89c0-23.08-10.31-34.62-30.94-34.62-9.45 0-17.19 2.45-23.08 7.24-7.61 6.14-11.17 15.1-11.17 28.24 0 24.55 10.92 34.99 36.7 34.99 8.48 0 15.96-1.35 24.44-4.42v-16.94c-8.84 2.82-14.24 3.8-21.36 3.8-11.66 0-14.61-2.46-15.35-12.4h40.76zm-40.88-12.16c.61-9.08 3.19-12.52 9.45-12.52 5.78 0 7.74 3.08 8.23 12.52h-17.68zM555.29 236.87v-92.82h-5.9c-2.45 2.7-8.35 4.17-17.55 4.3v88.52"/><path d="M1127.81 115.26c-.91-2.88-4.66-4.83-10.05-5.23-9.86-.78-22.64 2.84-35.12 9.81-8.11 4.55-17.09 12.09-25.3 21.24l-.25.28c-.2.22-.7.79-1.04 1.09-.01-.03-.01-.06-.01-.08-.12-.82.44-2.19 1.65-5.18.32-.79.68-1.67 1.09-2.7 2.16-5.41 3.56-14.53-.16-17.88-.93-.84-2.22-1.22-3.79-1.09-5.35.39-13.28 6.16-20.71 15.07-10.01 12.02-25.96 35.54-35.88 51.57-9.86 15.93-16.81 24.1-20.03 26.44-2.39 1.74-7.63 3.89-11.51 2.26-2.57-1.08-4.18-3.63-4.77-7.6-1.93-12.78 4.4-21.68 8.59-27.58 1.12-1.58 2.6-3.58 4.29-5.86 5.42-7.35 12.85-17.4 16.99-24.99 4.74-8.71 9.6-22.31 5.56-25.28-.69-.52-1.58-.68-2.61-.48-4.46.89-11.72 8.87-18.95 20.83-5.13 8.5-7.2 14.96-9.2 21.2-1.53 4.83-3 9.4-5.78 14.66l-.35.67c-6.08 11.52-8.13 15.4-17.6 23.52-8.92 7.65-20.66 9.9-28.55 5.5-6.97-3.89-6.19-16.65-5.78-20.47.32-3.1 1.73-5.53 3.03-7.57.34-.52 1.23-1.8 2.51-3.65 3.35-4.82 9.58-13.77 15.76-23.48 8.68-13.64 10.22-23.62 10.87-27.88.47-3.03-.21-5.52-1.75-6.5-.93-.59-2.61-.92-5.25.88-4.86 3.3-14.74 15.33-19.88 28.45-4.03 10.28-6.68 18.65-8.45 24.19-.44 1.38-.81 2.56-1.12 3.51-1.46 4.34-3.22 8.83-8.79 16-5.94 7.66-16.55 16.48-27.13 16.48-.19 0-.38-.01-.56-.02-2.54-.07-4.48-.89-5.93-2.52-4.61-5.18-3.47-18.19-2.37-30.75 1.15-13.18 7.23-34.96 18.07-64.73 5.78-15.92 15.12-31.61 16.99-34.69.4-.65.9-.79 1.54-.95 1.17-.27 25.96-3.98 46.91-3.98h1.31c20.32.16 34.32 4.78 40.29 6.76l1.1.36c1.7.55 3.53 1.24 5.48 1.96 4.19 1.58 8.53 3.21 11.71 3.45 2.82.24 5.42-.89 6.59-2.84.89-1.47 1.41-4.09-1.17-8.16-4.77-7.53-28.89-14.89-59.5-13.67-32.02 1.28-46.59 4.86-46.72 4.89-.01.01-.03.01-.04.01l.01-.03c.4-.75 13.61-20.71 23.53-30.46 10.31-10.12 18.68-15.33 22-17.38 2-1.24 3.06-2.48 3.26-3.79.14-.96-.21-1.92-1.04-2.85-.41-.46-1.01-.79-2.08-.79-2.18.02-6.31 1.57-14.7 7.12-10.34 6.83-22.04 18.96-31.08 29.58-8.23 9.68-15.5 20.09-16.46 21.47-.48.18-2 .71-4.08 1.12-2.95.6-11.82 3.86-25.68 9.43-12.43 5.01-19.92 9.52-25.38 12.8-1.22.73-2.34 1.4-3.4 2.01-1.7.99-2.7 2.67-2.68 4.5.02 1.48.72 2.73 1.87 3.36.82.44 2.58.93 5.24-.76 2.34-1.46 3.13-1.9 17.01-8.83 11.25-5.63 21.63-9.02 26.62-10.66 1.13-.36 1.94-.63 2.37-.8.44-.17.76-.28 1-.35-.09.15-.22.35-.38.6-1.38 2.17-5.05 7.93-11.11 19.62-6.91 13.36-18.43 40.03-28.54 69.48-9.27 26.96-19.87 37.44-25.36 41.28-1.97 1.38-4.21 2.68-5.92 1.86-2.3-1.08-3.8-5.95-4.47-14.46-1.19-15.45 4.21-35.35 6.53-43.85.34-1.27.61-2.27.77-2.93l.4-1.61c.75-3 1.2-4.82.5-5.95-.3-.51-.8-.82-1.52-.99-2.31-.55-4.1 2.29-10.69 12.82-1.09 1.74-2.31 3.7-3.69 5.88l-2.62 4.15c-8.32 13.27-17.75 28.32-29.99 40.09-7.64 7.36-14.4 10.12-20.1 8.22-3.37-1.12-8.05-7.48-1.51-37.41 6.26-28.71 23.19-38.49 28.75-41.7 7.97-4.59 18.58-3.25 27.95-2.06 1.08.13 2.14.27 3.18.4 10.79 1.28 14.39.37 17.97-2.01 2.45-1.63 4-3.91 4.06-5.92.03-1.11-.41-2.07-1.25-2.69-2.68-2.02-29.4-9.5-52.3 2.55-19.83 10.44-33.34 32.28-44.18 49.83-1.66 2.69-3.24 5.23-4.75 7.6-11.26 17.61-19.35 28.11-29.85 33.19-2.94 1.42-5.09 1.6-6.38.52-2.39-2.01-2.17-8.74.6-18.44 2.46-8.59 7.19-20.13 10.64-28.55 1.47-3.58 2.74-6.68 3.61-8.96.39-1.04.91-2.32 1.5-3.78 3.9-9.52 11.15-27.25 5.76-36.57-2.14-3.69-5.31-5.9-9.44-6.54-8.79-1.39-21.75 4.79-34.61 16.48-10.54 9.57-21.95 22.54-33.91 38.53l-.78 1.04c-.76.98-1.24 1.52-1.53 1.81.01-.14.04-.35.07-.6 1.84-15.39 4.13-52.47-14.45-64.42-12.99-8.34-44.41-9.16-74.49-.29-26.58 7.85-45.74 18.25-68.22 30.92-3.02 1.7-20.1 11.63-19.05 12.67 2.38 2.38 72.54-36.68 136.13-25.53 26.11 4.58 28.27 23.62 30.47 37.59 1.89 11.95-1.93 25.32-8.59 38.46-1.4 2.78-2.86 5.66-4.25 8.62-7.15 15.25-9.09 24.46-7.9 29.7.49 2.14 1.7 5.02 5.19 5.02 1.81 0 3.49-.75 5.33-2.22 5.61-4.44 10.16-14.1 12.76-30.76 2.84-18.14 5.47-26.85 14.51-39.58 9.4-13.24 27.87-24.99 36.42-25.32 1.85-.08 3.08.38 3.79 1.38 2.16 3.05-.84 10.65-2.63 15.2-.38.97-1.03 2.57-1.86 4.64-4.82 11.94-16.09 39.91-18.17 49.02-1.49 6.47-3.37 18 .68 24.05 1.32 1.98 3.19 2.96 5.54 3.35.99.17 2 .24 3.04.24 9.95 0 21.58-6.79 29.11-13.49 9.72-8.64 22.6-24.63 23.22-25.5.11-.16.21-.29.31-.42-.2 1.34-.52 3.63-1.03 7.48-.05.34-.11.77-.19 1.28-.84 5.73-3.06 22.11 2.41 28.13 1.65 1.81 3.81 2.52 6.57 2.52 14.4 0 30.14-15.48 35.02-20.66 3.41-3.61 10.52-11.74 21.14-24.13l.8-.93c.05-.07.11-.13.17-.19-.03.73-.13 2.03-.28 3.74-.12 1.51-.26 3.35-.41 5.4-.04.6-.13 1.53-.26 2.69-.89 8.6-1.87 34.08 7.9 34.08 8.52 0 19.28-10.56 27.3-18.21 9.73-9.26 17.17-21.66 19.62-25.74.13-.22.25-.42.36-.59-.01 1.07-.12 2.87-.25 4.96l-.04.73c-.4 6.57-.27 22.26 1.75 30.55.97 3.93 4.22 8.3 9.09 8.3 3.5 0 8.03-1.48 13.68-4.44 13.98-7.35 34.27-30.34 36.54-33.13l.29-.36c1.49-1.82 3.85-4.71 4.82-5.6-.01.7-.17 1.98-.35 3.41-.21 1.77-.51 4.19-.78 7.18l-.03.31c-.58 6.53-1.93 24.01 3.43 30.05 1.46 1.65 3.72 2.59 6 2.59 11.16 0 23.27-14.2 31.46-23.28 8.74-9.7 12.63-13.68 13.9-14.94l.4-.4c0 .01 0 .02-.01.03l-.02.21c-.03.17-.12.64-.27 1.36-1.16 5.57-4.69 23.61-1.42 31.4 1.32 3.11 3.37 4.95 6.15 5.47.49.09 1.01.15 1.54.15 5.09 0 11.79-3.87 18.69-11.01 8.54-8.84 18.3-27.57 24.75-39.22 1.2-2.16 2.26-4.09 3.17-5.69 6.05-10.64 14.36-23.29 19.5-21.25 1.65.66-8.48 26.53-10.28 31.88-3.34 9.96-8.66 22.78-10.67 30.08-1.74 6.35.24 15.2 9.76 15.2 1.08 0 2.29-.12 3.63-.36 8.8-1.59 17.61-9.08 27.06-16.59 7.26-5.78 16.06-14.15 20.29-18.16 1.23-1.17 2.07-1.96 2.34-2.2 1.04-.89 1.6-2.68 1.16-3.66-.24-.51-.71-.79-1.29-.69-1.34.2-3.11 1.62-8.48 6.42-5.1 4.56-10.66 9.14-17.64 10.64-2.26.48-3.37.99-4.97.35-1.73-.69-3.76-3.15-2.17-8.67.59-2.02 10.26-30.39 13.91-40.3 3.59-9.77 11.99-18.09 27.22-27 13.05-7.64 16.79-8.16 25.82-9.41 1.62-.22 3.41-.48 5.45-.79 13.94-2.14 16.03-3.85 20.65-7.6 2.03-1.69 2.83-3.72 2.24-5.61z" fill="#54a93d"/></svg></svg>
